<svg width="1440" height="393" viewBox="0 0 1440 393" fill="none" xmlns="http://www.w3.org/2000/svg">
<rect width="1440" height="393" fill="url(#paint0_linear_271_43)"/>
<path d="M649.082 185.88V192.696H660.074V199.032H649.082V206.424H661.514V213H640.874V179.304H661.514V185.88H649.082ZM678.891 205.32L684.699 186.216H693.435L683.931 213H673.803L664.299 186.216H673.083L678.891 205.32ZM722.138 199.176C722.138 199.944 722.09 200.744 721.994 201.576H703.418C703.546 203.24 704.074 204.52 705.002 205.416C705.962 206.28 707.13 206.712 708.506 206.712C710.554 206.712 711.978 205.848 712.778 204.12H721.514C721.066 205.88 720.25 207.464 719.066 208.872C717.914 210.28 716.458 211.384 714.698 212.184C712.938 212.984 710.97 213.384 708.794 213.384C706.17 213.384 703.834 212.824 701.786 211.704C699.738 210.584 698.138 208.984 696.986 206.904C695.834 204.824 695.258 202.392 695.258 199.608C695.258 196.824 695.818 194.392 696.938 192.312C698.09 190.232 699.69 188.632 701.738 187.512C703.786 186.392 706.138 185.832 708.794 185.832C711.386 185.832 713.69 186.376 715.706 187.464C717.722 188.552 719.29 190.104 720.41 192.12C721.562 194.136 722.138 196.488 722.138 199.176ZM713.738 197.016C713.738 195.608 713.258 194.488 712.298 193.656C711.338 192.824 710.138 192.408 708.698 192.408C707.322 192.408 706.154 192.808 705.194 193.608C704.266 194.408 703.69 195.544 703.466 197.016H713.738ZM742.788 185.928C745.924 185.928 748.42 186.952 750.276 189C752.164 191.016 753.108 193.8 753.108 197.352V213H744.948V198.456C744.948 196.664 744.484 195.272 743.556 194.28C742.628 193.288 741.38 192.792 739.812 192.792C738.244 192.792 736.996 193.288 736.068 194.28C735.14 195.272 734.676 196.664 734.676 198.456V213H726.468V186.216H734.676V189.768C735.508 188.584 736.628 187.656 738.036 186.984C739.444 186.28 741.028 185.928 742.788 185.928ZM773.74 206.04V213H769.564C766.588 213 764.268 212.28 762.604 210.84C760.94 209.368 760.108 206.984 760.108 203.688V193.032H756.844V186.216H760.108V179.688H768.316V186.216H773.692V193.032H768.316V203.784C768.316 204.584 768.508 205.16 768.892 205.512C769.276 205.864 769.916 206.04 770.812 206.04H773.74ZM789.208 213.384C786.872 213.384 784.792 212.984 782.968 212.184C781.144 211.384 779.704 210.296 778.648 208.92C777.592 207.512 777 205.944 776.872 204.216H784.984C785.08 205.144 785.512 205.896 786.28 206.472C787.048 207.048 787.992 207.336 789.112 207.336C790.136 207.336 790.92 207.144 791.464 206.76C792.04 206.344 792.328 205.816 792.328 205.176C792.328 204.408 791.928 203.848 791.128 203.496C790.328 203.112 789.032 202.696 787.24 202.248C785.32 201.8 783.72 201.336 782.44 200.856C781.16 200.344 780.056 199.56 779.128 198.504C778.2 197.416 777.736 195.96 777.736 194.136C777.736 192.6 778.152 191.208 778.984 189.96C779.848 188.68 781.096 187.672 782.728 186.936C784.392 186.2 786.36 185.832 788.632 185.832C791.992 185.832 794.632 186.664 796.552 188.328C798.504 189.992 799.624 192.2 799.912 194.952H792.328C792.2 194.024 791.784 193.288 791.08 192.744C790.408 192.2 789.512 191.928 788.392 191.928C787.432 191.928 786.696 192.12 786.184 192.504C785.672 192.856 785.416 193.352 785.416 193.992C785.416 194.76 785.816 195.336 786.616 195.72C787.448 196.104 788.728 196.488 790.456 196.872C792.44 197.384 794.056 197.896 795.304 198.408C796.552 198.888 797.64 199.688 798.568 200.808C799.528 201.896 800.024 203.368 800.056 205.224C800.056 206.792 799.608 208.2 798.712 209.448C797.848 210.664 796.584 211.624 794.92 212.328C793.288 213.032 791.384 213.384 789.208 213.384Z" fill="#FEFFEF"/>
<defs>
<linearGradient id="paint0_linear_271_43" x1="720" y1="0" x2="720" y2="627.5" gradientUnits="userSpaceOnUse">
<stop stop-color="#EDEAAB"/>
<stop offset="0.367708" stop-color="#1AD7A5" stop-opacity="0.66"/>
<stop offset="1" stop-color="#7CC831" stop-opacity="0.1"/>
</linearGradient>
</defs>
</svg>
