<svg width="74" height="74" viewBox="0 0 74 74" fill="none" xmlns="http://www.w3.org/2000/svg">
<rect width="74" height="74" rx="24" fill="#FAF4D8" fill-opacity="0.9"/>
<path d="M45.25 20H27.75C22.9175 20 19 23.9175 19 28.75V46.25C19 51.0825 22.9175 55 27.75 55H45.25C50.0825 55 54 51.0825 54 46.25V28.75C54 23.9175 50.0825 20 45.25 20Z" fill="#FAF4D8" fill-opacity="0.9" stroke="#674E35" stroke-width="3" stroke-linecap="round" stroke-linejoin="round"/>
<path d="M43.5 36.3975C43.7159 37.854 43.4672 39.3414 42.7891 40.6483C42.1109 41.9552 41.038 43.015 39.7228 43.677C38.4077 44.3389 36.9173 44.5693 35.4636 44.3354C34.0099 44.1015 32.6671 43.4152 31.6259 42.3741C30.5848 41.333 29.8985 39.9901 29.6646 38.5364C29.4307 37.0828 29.6611 35.5924 30.323 34.2772C30.985 32.962 32.0448 31.8891 33.3517 31.211C34.6586 30.5328 36.146 30.2841 37.6025 30.5C39.0881 30.7203 40.4635 31.4126 41.5254 32.4746C42.5874 33.5366 43.2797 34.9119 43.5 36.3975Z" fill="#FAF4D8" fill-opacity="0.9" stroke="#674E35" stroke-width="3" stroke-linecap="round" stroke-linejoin="round"/>
<path d="M46.125 27.875H46.1425" stroke="#674E35" stroke-width="3" stroke-linecap="round" stroke-linejoin="round"/>
</svg>
