<svg width="74" height="74" viewBox="0 0 74 74" fill="none" xmlns="http://www.w3.org/2000/svg">
<rect width="74" height="74" rx="24" fill="#FAF4D8" fill-opacity="0.9"/>
<path d="M43.2894 31.5527C45.823 31.5527 48.2527 32.5592 50.0442 34.3506C51.8356 36.1421 52.8421 38.5719 52.8421 41.1054V52.2501H46.4737V41.1054C46.4737 40.2609 46.1382 39.4509 45.541 38.8538C44.9439 38.2566 44.134 37.9212 43.2894 37.9212C42.4449 37.9212 41.635 38.2566 41.0379 38.8538C40.4407 39.4509 40.1052 40.2609 40.1052 41.1054V52.2501H33.7368V41.1054C33.7368 38.5719 34.7433 36.1421 36.5347 34.3506C38.3262 32.5592 40.7559 31.5527 43.2894 31.5527Z" fill="#674E35" stroke="#674E35" stroke-width="2" stroke-linecap="round" stroke-linejoin="round"/>
<path d="M27.3684 33.1448H21V52.25H27.3684V33.1448Z" fill="#674E35" stroke="#674E35" stroke-width="2" stroke-linecap="round" stroke-linejoin="round"/>
<path d="M24.1842 28.3684C25.9428 28.3684 27.3684 26.9428 27.3684 25.1842C27.3684 23.4256 25.9428 22 24.1842 22C22.4256 22 21 23.4256 21 25.1842C21 26.9428 22.4256 28.3684 24.1842 28.3684Z" fill="#674E35" stroke="#674E35" stroke-width="2" stroke-linecap="round" stroke-linejoin="round"/>
</svg>
