<svg width="74" height="74" viewBox="0 0 74 74" fill="none" xmlns="http://www.w3.org/2000/svg">
<rect width="74" height="74" rx="24" fill="#FAF4D8" fill-opacity="0.9"/>
<path d="M53.9167 23.0155C52.4403 24.0569 50.8058 24.8533 49.0758 25.3743C48.1474 24.3067 46.9134 23.55 45.5408 23.2066C44.1683 22.8631 42.7234 22.9495 41.4015 23.454C40.0797 23.9586 38.9447 24.8569 38.15 26.0275C37.3553 27.1981 36.9394 28.5845 36.9583 29.9993V31.5409C34.2491 31.6112 31.5645 31.0103 29.1436 29.7918C26.7228 28.5733 24.6409 26.7751 23.0833 24.5572C23.0833 24.5572 16.9167 38.4322 30.7917 44.5988C27.6166 46.754 23.8344 47.8347 20 47.6822C33.875 55.3905 50.8333 47.6822 50.8333 29.953C50.8319 29.5236 50.7906 29.0952 50.71 28.6734C52.2834 27.1217 53.3938 25.1626 53.9167 23.0155Z" fill="#674E35" stroke="#674E35" stroke-width="2" stroke-linecap="round" stroke-linejoin="round"/>
</svg>
